<svg xmlns="http://www.w3.org/2000/svg" shape-rendering="geometricPrecision" text-rendering="geometricPrecision" image-rendering="optimizeQuality" fill-rule="evenodd" clip-rule="evenodd" viewBox="0 0 512 512"><path d="M256 0c70.69 0 134.69 28.66 181.02 74.98C483.34 121.31 512 185.31 512 256c0 70.69-28.66 134.69-74.98 181.02C390.69 483.34 326.69 512 256 512c-70.69 0-134.69-28.66-181.02-74.98C28.66 390.69 0 326.69 0 256c0-70.69 28.66-134.69 74.98-181.02C121.31 28.66 185.31 0 256 0zm-15.38 310.18l-2.51-31.62c-4.26-52.99-8.07-94.08-8.08-149.34-.01-1.26.51-2.41 1.34-3.24.83-.83 1.98-1.35 3.24-1.35h42.77c1.27 0 2.41.52 3.24 1.35a4.54 4.54 0 011.35 3.24c0 55.01-3.58 96.75-7.53 149.85l-2.31 31.32a4.584 4.584 0 01-1.43 2.97c-.83.77-1.94 1.24-3.13 1.24H245.2a4.52 4.52 0 01-3.21-1.32c-.8-.79-1.32-1.89-1.37-3.1zm-6.01 72.6v-30.2c0-1.25.51-2.4 1.34-3.23a4.54 4.54 0 013.24-1.35h33.61c1.26 0 2.41.51 3.24 1.34l.08.09c.78.83 1.27 1.95 1.27 3.15v30.2c0 1.27-.52 2.41-1.35 3.24-.83.83-1.98 1.35-3.24 1.35h-33.61c-1.26 0-2.41-.52-3.24-1.35a4.556 4.556 0 01-1.34-3.24z"/></svg>